<svg width="25" height="25" viewBox="0 0 25 25" fill="none" xmlns="http://www.w3.org/2000/svg">
<g clip-path="url(#clip0_2_40)">
<path d="M18.1902 6.34856L18.1902 6.34798C18.1848 5.1892 17.2437 4.24732 16.089 4.24732H4.46703C3.30747 4.24732 2.36578 5.18901 2.36578 6.34856V23.0238C2.36578 24.1833 3.30747 25.125 4.46703 25.125H16.089C17.2485 25.125 18.1902 24.1833 18.1902 23.0238L18.1902 6.34856ZM16.5528 23.0186C16.5528 23.2773 16.3425 23.4875 16.0839 23.4875H4.46191C4.20328 23.4875 3.99301 23.2773 3.99301 23.0186V6.34856C3.99301 6.08993 4.20328 5.87967 4.46191 5.87967H16.0839C16.3425 5.87967 16.5528 6.08993 16.5528 6.34856V23.0186Z" fill="white" stroke="white" stroke-width="0.25"/>
<path d="M20.533 -0.125H8.91103C7.75147 -0.125 6.80978 0.81669 6.80978 1.97624C6.80978 2.42927 7.17294 2.79242 7.62596 2.79242C8.07898 2.79242 8.44213 2.42927 8.44213 1.97624C8.44213 1.71761 8.6524 1.50735 8.91103 1.50735H20.533C20.7916 1.50735 21.0019 1.71761 21.0019 1.97624V18.6514C21.0019 18.9101 20.7916 19.1203 20.533 19.1203C20.08 19.1203 19.7168 19.4835 19.7168 19.9365C19.7168 20.3895 20.08 20.7527 20.533 20.7527C21.6925 20.7527 22.6342 19.811 22.6342 18.6514V1.97624C22.6342 0.81669 21.6925 -0.125 20.533 -0.125Z" fill="white" stroke="white" stroke-width="0.25"/>
</g>
<defs>
<clipPath id="clip0_2_40">
<rect width="25" height="25" fill="white"/>
</clipPath>
</defs>
</svg>
