<svg width="21" height="21" viewBox="0 0 21 21" fill="none" xmlns="http://www.w3.org/2000/svg">
<path d="M20.1521 5.51536C19.611 4.55738 19.0237 4.38117 17.828 4.31416C16.6334 4.23351 13.6297 4.2 11.0275 4.2C8.42028 4.2 5.41531 4.23351 4.22205 4.31292C3.02879 4.38117 2.44027 4.55614 1.89414 5.51536C1.33678 6.47211 1.05 8.12003 1.05 11.0213C1.05 11.0238 1.05 11.025 1.05 11.025C1.05 11.0275 1.05 11.0287 1.05 11.0287V11.0312C1.05 13.92 1.33678 15.5804 1.89414 16.5272C2.44027 17.4852 3.02755 17.6589 4.22081 17.7396C5.41531 17.8091 8.42028 17.85 11.0275 17.85C13.6297 17.85 16.6334 17.8091 17.8292 17.7408C19.025 17.6601 19.6122 17.4864 20.1534 16.5284C20.7157 15.5816 21 13.9213 21 11.0324C21 11.0324 21 11.0287 21 11.0262C21 11.0262 21 11.0238 21 11.0225C21 8.12003 20.7157 6.47211 20.1521 5.51536ZM8.53125 14.7477V7.30227L14.7656 11.025L8.53125 14.7477Z" fill="#3A3C48"/>
</svg>
